PathFileType	4	(X/Y/Z)	/Users/visionmauri/1_6_1_f_Sports2D/1_6_1_f_Sports2D_px_person00.trc
DataRate	CameraRate	NumFrames	NumMarkers	Units	OrigDataRate	OrigDataStartFrame	OrigNumFrames
30.0	30.0	12	22	m	30.0	55	447
Frame#	Time	Hip			RHip			RKnee			RAnkle			RBigToe			RSmallToe			RHeel			LHip			LKnee			LAnkle			LBigToe			LSmallToe			LHeel			Neck			Head			Nose			RShoulder			RElbow			RWrist			LShoulder			LElbow			LWrist			
		X1	Y1	Z1	X2	Y2	Z2	X3	Y3	Z3	X4	Y4	Z4	X5	Y5	Z5	X6	Y6	Z6	X7	Y7	Z7	X8	Y8	Z8	X9	Y9	Z9	X10	Y10	Z10	X11	Y11	Z11	X12	Y12	Z12	X13	Y13	Z13	X14	Y14	Z14	X15	Y15	Z15	X16	Y16	Z16	X17	Y17	Z17	X18	Y18	Z18	X19	Y19	Z19	X20	Y20	Z20	X21	Y21	Z21	X22	Y22	Z22
55	1.8374439461883407	564.5080096419903	882.6036960209202	0.0	653.134043372823	917.2546837804423	0.0	643.4619116250487	1248.7973061973591	0.0	609.3186720513196	1601.8143343298534	0.0	573.7906051461964	1690.067803970535	0.0	637.2676313303955	1696.71807805784	0.0	599.8436607147216	1662.3534138655452	0.0	476.4220013490128	904.0340237990613	0.0	482.8756240526261	1173.6850975208636	0.0	496.92046415078823	1494.6460082155281	0.0	513.5186904172946	1617.676632887763	0.0	453.02053783071517	1605.8535024951605	0.0	501.20768656622494	1571.056983647982	0.0	553.3075900332835	394.499582821962	0.0	553.3480763051409	277.4353080973492	0.0	565.8217150596417	366.9024009162683	0.0	709.4325001009718	460.24653377805146	0.0	803.9921534639147	693.5858551702376	0.0	838.8203866212825	878.6188408339808	0.0	407.3856419180925	456.97001715160735	0.0	326.60823991689944	687.0205757794502	0.0	327.29849531325436	713.8908274257141	0.0
56	1.8708520179372197	562.541205547915	879.7705145281896	0.0	649.9640840784973	911.0976574853781	0.0	646.8683306785429	1233.8987610167908	0.0	612.0399720093885	1573.8729222846275	0.0	570.4565046355744	1683.1036986089719	0.0	636.6138149692929	1683.954144100027	0.0	600.362688366758	1633.9896448494248	0.0	474.52584452273	900.3979139633204	0.0	480.00067486023016	1170.164229895022	0.0	494.7157750830775	1501.7781401863133	0.0	502.5931083815837	1619.2535058911492	0.0	450.93116414503857	1598.4077212975606	0.0	498.7939635318413	1582.292280957573	0.0	551.7795930319126	399.4515307563709	0.0	552.1442667055452	279.6016798880983	0.0	562.733845670381	370.0150911228491	0.0	705.3004374956589	461.39853676412935	0.0	801.6744871970091	691.9018521971595	0.0	837.035707842204	876.0086913526666	0.0	404.5496299602974	460.61434154174486	0.0	322.58892125147537	693.3814560826731	0.0	327.0544498287576	715.0330542232442	0.0
57	1.9042600896860986	559.9329101618582	875.3206238452642	0.0	646.8873277869354	903.4104149425744	0.0	647.8303381355602	1217.2442414805078	0.0	614.2272868149262	1544.9118278276367	0.0	560.2987680227541	1667.548838940206	0.0	636.3538404082202	1665.1593741325814	0.0	600.2458571840394	1604.3718394967018	0.0	473.00214615051397	894.8446926486505	0.0	477.5373987957353	1165.7551871638252	0.0	488.1738723197972	1501.2608485925243	0.0	492.2292482609359	1614.0095324026956	0.0	447.75154702975345	1588.101135408122	0.0	492.50570325490446	1587.2285807457679	0.0	550.3813031462054	404.918551661681	0.0	550.2021372642249	280.9291873315283	0.0	558.2534351342958	372.1801536159534	0.0	700.666258615438	463.2672253862388	0.0	798.1566748505444	691.0155692496447	0.0	835.2901758869828	874.7392440261405	0.0	402.2754028115599	463.1946750913789	0.0	320.73787996479024	697.0748363454168	0.0	326.4102144883611	715.3807334739167	0.0
58	1.9376681614349776	557.3399543558701	872.059066495836	0.0	644.8201803660356	897.2751658652159	0.0	646.534972994668	1202.9606179022285	0.0	615.1985123689032	1522.007693056782	0.0	551.9518663720829	1647.0169150721183	0.0	636.742092193654	1642.951172057297	0.0	600.0716687682767	1581.4211623172505	0.0	471.54342135748396	890.415788734381	0.0	475.74885209734214	1167.8054145631916	0.0	482.7692635765878	1469.041621971869	0.0	487.5852060277907	1605.4545696892926	0.0	444.63265679552006	1587.0894325595227	0.0	488.67849013444464	1552.6030171477926	0.0	548.7405535274856	409.5136194233707	0.0	547.5572779444202	281.6225235363979	0.0	551.130869042045	374.1684669606593	0.0	697.0179397134308	465.28483343657615	0.0	794.0419609520222	689.2565456242285	0.0	835.0245029084416	874.7059176407589	0.0	400.7752428994959	465.2388098288567	0.0	319.0570356538727	698.7136974836056	0.0	325.018355590466	717.0406862724002	0.0
59	1.9710762331838563	555.9001009833726	872.0781194476841	0.0	643.6755046218128	896.6260983891633	0.0	644.3066276905912	1193.3204029727235	0.0	614.6182232984581	1507.0199322565334	0.0	554.9299576729287	1626.7482922212696	0.0	637.4009765985608	1620.507607847577	0.0	600.0302612070954	1566.7912130199334	0.0	470.5820855177791	891.3934704714064	0.0	474.7995754074092	1175.4408303146772	0.0	482.73768567597176	1406.6322543493413	0.0	487.8547630328164	1601.250627769128	0.0	443.0802937579901	1596.8343392974507	0.0	490.99728301243914	1477.2721871989386	0.0	546.5727764235108	411.1585245844135	0.0	544.8527161053846	283.9374635235825	0.0	544.9407515211464	377.419856253442	0.0	695.0101286409229	466.75480919197037	0.0	790.1975742881286	685.2074732282997	0.0	835.6970030912139	874.6198391374634	0.0	399.57212021365723	468.80986024265343	0.0	317.22314684443387	701.8234577229132	0.0	323.8598175794215	723.1810495658832	0.0
60	2.004484304932735	555.8100904197925	872.7192722562406	0.0	642.8109179013713	899.9706333195281	0.0	641.9033741143924	1187.960489660881	0.0	613.3219858730679	1497.5754110573148	0.0	566.4068338819786	1607.0605784499144	0.0	637.9330213672445	1599.0533532563672	0.0	600.2024754839197	1556.8266361390151	0.0	470.36615870991966	895.5938665530365	0.0	474.1947441229564	1177.6690057829442	0.0	484.70948365437613	1379.242194129969	0.0	491.4184160292294	1601.7886005619825	0.0	444.5378716427316	1604.9290148187893	0.0	493.9774982151818	1438.7934765207824	0.0	543.9338880769741	410.8468605888595	0.0	542.7538875330579	288.4957095369672	0.0	545.895208684446	380.4857593063156	0.0	693.3096466682282	467.3429009446001	0.0	787.0463555143696	680.6560058154855	0.0	835.8344742785713	873.9240071272679	0.0	398.4519119119167	473.9713189485642	0.0	316.329735929851	707.025169383331	0.0	323.2995630147808	731.8401270942893	0.0
61	2.037892376681614	556.4209758903596	871.255497270586	0.0	642.3336036475736	903.2119677058027	0.0	639.4701587446158	1184.4421336291543	0.0	612.4315694295885	1490.6459390978537	0.0	576.8736035608191	1583.6404002993363	0.0	638.464338120537	1577.6526586465377	0.0	601.6389506713654	1547.3705784992464	0.0	470.4200933417572	898.40572712322	0.0	473.2847103193271	1166.317611601311	0.0	484.6346082350033	1426.3531548306883	0.0	497.2961072377291	1599.5051156266713	0.0	448.9572373420014	1601.262593076436	0.0	492.8938341663974	1461.3072865505585	0.0	541.4348288883988	411.08339116714563	0.0	541.1576300691429	293.8282193649385	0.0	552.3631227629144	381.628067861523	0.0	690.6801209488391	467.89971632091175	0.0	784.9944998050045	678.1759461985828	0.0	835.1786009174423	873.0772931142061	0.0	398.5490463291871	478.1410645901033	0.0	316.6472763066565	709.7816046368362	0.0	323.12986563191856	736.9895227407901	0.0
62	2.071300448430493	556.439304189649	870.6308076773691	0.0	642.42596560958	906.0836852950773	0.0	636.6948090093799	1181.3931369566267	0.0	611.9618550936108	1485.1321475394252	0.0	581.8152382307932	1554.9338617374967	0.0	638.9626401451138	1556.3038329622814	0.0	604.3050594326442	1538.40247074005	0.0	470.32876054201176	900.0200471845577	0.0	472.7004476233651	1152.0308635036547	0.0	484.46598131476713	1466.273081491212	0.0	501.990155795713	1599.236546135853	0.0	452.76407527144767	1594.3348062995503	0.0	490.96248027423223	1430.149354333509	0.0	540.0419190102275	411.8093487724583	0.0	540.1689919027111	299.0417764299065	0.0	556.4363894832485	383.2186206908307	0.0	688.0276725032688	470.06262690053137	0.0	784.3239917356258	678.357178823567	0.0	834.708610666335	872.5856014350039	0.0	400.1131269849197	480.15455398590143	0.0	317.9710646413946	708.345935998134	0.0	324.30105827539614	737.9388715943716	0.0
63	2.104708520179372	555.4717322325682	873.1046078409132	0.0	642.8841991793896	907.7366112157089	0.0	633.2473973523554	1180.9592950513697	0.0	610.9789675314961	1481.106800972035	0.0	582.8557762506149	1525.0968045062064	0.0	638.7065910022075	1535.5787753789434	0.0	605.3955181754408	1532.2844386896866	0.0	470.1286486945152	899.4870725600737	0.0	473.5684949176701	1153.334829667083	0.0	486.9102987099111	1404.8511493250414	0.0	502.05599637270245	1605.8620717205092	0.0	452.1820658955073	1591.0456591827767	0.0	492.0044668716857	1296.7383078943942	0.0	540.7263965389687	413.87432821428024	0.0	540.826290306493	303.4089569051797	0.0	555.948523393549	388.00353932588325	0.0	687.0239128937083	473.7428906795521	0.0	784.545364693241	679.8183175906373	0.0	834.7489591948656	872.4244163669457	0.0	401.68804661118736	482.0671617477428	0.0	320.0250534999139	708.4324429148454	0.0	327.9177434301683	738.1718102425879	0.0
64	2.138116591928251	555.1163316486263	875.325984083355	0.0	643.6192330651808	905.9371873198739	0.0	629.5867773120327	1184.7582786285313	0.0	609.0254205663409	1477.2376083279528	0.0	583.2765662996081	1500.3781305775344	0.0	637.3874048337484	1516.0001524137458	0.0	602.7972530074476	1528.1083046950607	0.0	470.2132744860909	894.3074627064332	0.0	475.55242831622525	1165.6472254254898	0.0	488.9596383425711	1275.0534767522831	0.0	499.18321735459136	1577.2936897344978	0.0	449.0697554615534	1561.9387231325045	0.0	494.48925013036995	1167.618153602211	0.0	543.1787497916143	420.02538353987177	0.0	543.1961983359563	305.89290748043373	0.0	556.0291690305829	393.93322784731174	0.0	687.8236991181949	477.14759777502593	0.0	784.8498793335089	680.1012223444482	0.0	833.9731906816459	872.2688732932262	0.0	402.38180277225024	485.45044939071033	0.0	322.13349625203466	712.938794294667	0.0	332.14292810478565	738.189666960749	0.0
65	2.17152466367713	556.5618260743556	875.1679824773908	0.0	644.6943258953469	902.685272111589	0.0	626.5312677742888	1190.2554033827173	0.0	606.8910993519509	1471.7640984520622	0.0	584.4169493865454	1484.5410361486124	0.0	635.9471839143644	1500.5986330998455	0.0	598.7852381808151	1522.528608924754	0.0	471.56533482814837	889.2600279012257	0.0	477.44912515785893	1169.365814646709	0.0	487.17379155553147	1173.9809841568785	0.0	498.65743240850713	1463.146363623835	0.0	449.1837105850168	1490.583427859207	0.0	496.0362465624516	1111.9269682143645	0.0	545.6964301865073	428.2929582162267	0.0	545.7004000486901	307.9018146512691	0.0	559.1955443911877	397.57572480014306	0.0	689.3185031203075	479.9426981384423	0.0	785.013231780713	678.279872267173	0.0	831.7171634976426	871.6963293748344	0.0	402.46255704511776	489.5988217754092	0.0	323.52792938860824	717.7546365499744	0.0	334.6769767354029	737.3514850007904	0.0
66	2.204932735426009	559.0068636298499	874.7902784681664	0.0	646.2479768370252	901.3603493420005	0.0	624.5445877038867	1193.7824507528444	0.0	605.4521336245135	1466.18119630754	0.0	584.6118759537453	1477.3250184146136	0.0	635.2456931803221	1493.2462953407437	0.0	596.7130379932007	1516.3507124873536	0.0	474.8336903573317	890.6961355076402	0.0	478.64086042054646	1162.6678753360047	0.0	483.55449803152345	1132.2178789421512	0.0	500.69996336145323	1328.5801716930491	0.0	452.68384345447447	1445.1614017019663	0.0	496.79834801793464	1099.0998090976173	0.0	547.2488995342152	433.9548553003864	0.0	547.2515187668391	312.72560122780277	0.0	562.2539384106898	399.8527086678902	0.0	690.3380065226885	483.8346768056352	0.0	785.212567925122	676.1791783119962	0.0	829.5974836889607	870.1564886538276	0.0	402.55745399396176	493.8792199242587	0.0	324.3890724362093	720.3405962589994	0.0	336.8703100526502	735.5510304273796	0.0
